<?xml version="1.0" encoding="utf-8"?>
<!-- Generator: Adobe Illustrator 16.0.3, SVG Export Plug-In . SVG Version: 6.00 Build 0)  -->
<!DOCTYPE svg PUBLIC "-//W3C//DTD SVG 1.1//EN" "http://www.w3.org/Graphics/SVG/1.1/DTD/svg11.dtd">
<svg version="1.1" id="Layer_1" xmlns="http://www.w3.org/2000/svg" xmlns:xlink="http://www.w3.org/1999/xlink" x="0px" y="0px"
	 width="672.92px" height="270.803px" viewBox="0 0 672.92 270.803" enable-background="new 0 0 672.92 270.803"
	 xml:space="preserve">
<path fill="none" stroke="#000000" stroke-miterlimit="10" d="M292.814,179.844c-40.625,43.041-90.165,86.652-152.342,90.222
	c-62.327,3.577-118.675-33.507-135.054-94.624C-10.36,116.569,12.426,52.98,65.125,20.92
	c62.14-37.804,130.374-16.751,182.397,27.196c71.064,60.033,125.912,142.425,203.675,194.234
	c55.786,37.167,129.383,37.599,179.53-10.167c43.842-41.763,53.822-109.929,26.545-163.621
	C630.633,16.13,571.57-7.122,515.027,2.701c-54.526,9.472-98.489,49.512-135.069,88.249"/>
</svg>
